<svg xmlns="http://www.w3.org/2000/svg" xmlns:xlink="http://www.w3.org/1999/xlink" width="500" zoomAndPan="magnify" viewBox="0 0 375 374.999991" height="500" preserveAspectRatio="xMidYMid meet" version="1.0"><defs><g/></defs><g fill="#a8a29c" fill-opacity="1"><g transform="translate(192.72818, 247.125898)"><g><path d="M 40.296875 3.0625 C 34.066406 3.0625 27.71875 2.296875 21.25 0.765625 C 14.789062 -0.765625 9.40625 -2.773438 5.09375 -5.265625 L 5.953125 -28.390625 L 7.65625 -28.390625 L 12.921875 -17.34375 C 14.503906 -14.164062 16.203125 -11.359375 18.015625 -8.921875 C 19.835938 -6.484375 22.332031 -4.585938 25.5 -3.234375 C 27.769531 -2.097656 29.953125 -1.332031 32.046875 -0.9375 C 34.148438 -0.539062 36.503906 -0.34375 39.109375 -0.34375 C 46.023438 -0.34375 51.492188 -2.210938 55.515625 -5.953125 C 59.535156 -9.691406 61.546875 -14.507812 61.546875 -20.40625 C 61.546875 -25.957031 60.1875 -30.289062 57.46875 -33.40625 C 54.75 -36.53125 50.382812 -39.566406 44.375 -42.515625 L 37.40625 -45.5625 C 27.65625 -49.875 20.03125 -54.832031 14.53125 -60.4375 C 9.039062 -66.050781 6.296875 -73.507812 6.296875 -82.8125 C 6.296875 -89.5 8.019531 -95.273438 11.46875 -100.140625 C 14.925781 -105.015625 19.742188 -108.753906 25.921875 -111.359375 C 32.109375 -113.972656 39.335938 -115.28125 47.609375 -115.28125 C 53.617188 -115.28125 59.3125 -114.484375 64.6875 -112.890625 C 70.070312 -111.304688 74.75 -109.15625 78.71875 -106.4375 L 77.703125 -86.03125 L 76 -86.03125 L 69.03125 -98.78125 C 67.101562 -102.75 65.175781 -105.554688 63.25 -107.203125 C 61.320312 -108.847656 59.113281 -110.007812 56.625 -110.6875 C 55.144531 -111.144531 53.78125 -111.457031 52.53125 -111.625 C 51.289062 -111.789062 49.707031 -111.875 47.78125 -111.875 C 42 -111.875 37.125 -110.203125 33.15625 -106.859375 C 29.1875 -103.515625 27.203125 -99.007812 27.203125 -93.34375 C 27.203125 -87.5625 28.734375 -82.941406 31.796875 -79.484375 C 34.859375 -76.023438 39.335938 -72.9375 45.234375 -70.21875 L 53.046875 -66.828125 C 63.929688 -62.066406 71.753906 -56.992188 76.515625 -51.609375 C 81.273438 -46.222656 83.65625 -39.28125 83.65625 -30.78125 C 83.65625 -20.800781 79.882812 -12.664062 72.34375 -6.375 C 64.8125 -0.0820312 54.128906 3.0625 40.296875 3.0625 Z M 40.296875 3.0625 "/></g></g></g><g fill="#3d3b3a" fill-opacity="1"><g transform="translate(100.894831, 247.285479)"><g><path d="M 3.734375 0 L 3.734375 -1.703125 L 7.3125 -3.0625 C 10.9375 -4.53125 12.75 -7.421875 12.75 -11.734375 L 12.75 -100.46875 C 12.75 -105 10.9375 -107.890625 7.3125 -109.140625 L 3.734375 -110.5 L 3.734375 -112.203125 L 48.625 -112.203125 C 60.632812 -112.203125 70.972656 -109.960938 79.640625 -105.484375 C 88.316406 -101.003906 95.003906 -94.597656 99.703125 -86.265625 C 104.410156 -77.941406 106.765625 -67.941406 106.765625 -56.265625 C 106.765625 -44.367188 104.210938 -34.226562 99.109375 -25.84375 C 94.003906 -17.457031 86.890625 -11.050781 77.765625 -6.625 C 68.648438 -2.207031 57.914062 0 45.5625 0 Z M 38.25 -3.40625 L 45.5625 -3.40625 C 53.71875 -3.40625 60.289062 -5.019531 65.28125 -8.25 C 70.269531 -11.476562 73.925781 -16.914062 76.25 -24.5625 C 78.570312 -32.21875 79.734375 -42.726562 79.734375 -56.09375 C 79.734375 -69.46875 78.570312 -79.976562 76.25 -87.625 C 73.925781 -95.28125 70.328125 -100.722656 65.453125 -103.953125 C 60.578125 -107.179688 54.171875 -108.796875 46.234375 -108.796875 L 38.25 -108.796875 Z M 38.25 -3.40625 "/></g></g></g><path fill="#ffffff" d="M 110.082031 175.316406 L 272.460938 175.316406 L 272.460938 196.867188 L 110.082031 196.867188 L 110.082031 175.316406 " fill-opacity="1" fill-rule="nonzero"/><g fill="#846d62" fill-opacity="1"><g transform="translate(120.000542, 189.465338)"><g><path d="M 0.96875 0 L 0.96875 -8 L 3.671875 -8 C 4.296875 -8 4.804688 -7.882812 5.203125 -7.65625 C 5.609375 -7.4375 5.90625 -7.132812 6.09375 -6.75 C 6.289062 -6.363281 6.390625 -5.9375 6.390625 -5.46875 C 6.390625 -5 6.289062 -4.570312 6.09375 -4.1875 C 5.90625 -3.800781 5.613281 -3.492188 5.21875 -3.265625 C 4.820312 -3.035156 4.3125 -2.921875 3.6875 -2.921875 L 1.9375 -2.921875 L 1.9375 0 Z M 1.9375 -3.78125 L 3.65625 -3.78125 C 4.300781 -3.78125 4.757812 -3.941406 5.03125 -4.265625 C 5.300781 -4.585938 5.4375 -4.988281 5.4375 -5.46875 C 5.4375 -5.945312 5.300781 -6.34375 5.03125 -6.65625 C 4.757812 -6.976562 4.296875 -7.140625 3.640625 -7.140625 L 1.9375 -7.140625 Z M 1.9375 -3.78125 "/></g></g></g><g fill="#846d62" fill-opacity="1"><g transform="translate(129.224023, 189.465338)"><g><path d="M 0.96875 0 L 0.96875 -8 L 5.796875 -8 L 5.796875 -7.140625 L 1.9375 -7.140625 L 1.9375 -4.4375 L 5.546875 -4.4375 L 5.546875 -3.578125 L 1.9375 -3.578125 L 1.9375 -0.859375 L 5.859375 -0.859375 L 5.859375 0 Z M 0.96875 0 "/></g></g></g><g fill="#846d62" fill-opacity="1"><g transform="translate(138.041537, 189.465338)"><g><path d="M 0.96875 0 L 0.96875 -8 L 3.671875 -8 C 4.296875 -8 4.804688 -7.890625 5.203125 -7.671875 C 5.609375 -7.460938 5.90625 -7.171875 6.09375 -6.796875 C 6.289062 -6.429688 6.390625 -6.015625 6.390625 -5.546875 C 6.390625 -5.015625 6.265625 -4.550781 6.015625 -4.15625 C 5.773438 -3.757812 5.398438 -3.476562 4.890625 -3.3125 L 6.703125 0 L 5.578125 0 L 3.890625 -3.125 C 3.828125 -3.125 3.757812 -3.125 3.6875 -3.125 L 1.9375 -3.125 L 1.9375 0 Z M 1.9375 -4 L 3.65625 -4 C 4.300781 -4 4.757812 -4.132812 5.03125 -4.40625 C 5.300781 -4.6875 5.4375 -5.066406 5.4375 -5.546875 C 5.4375 -6.023438 5.296875 -6.410156 5.015625 -6.703125 C 4.742188 -6.992188 4.285156 -7.140625 3.640625 -7.140625 L 1.9375 -7.140625 Z M 1.9375 -4 "/></g></g></g><g fill="#846d62" fill-opacity="1"><g transform="translate(147.31186, 189.465338)"><g><path d="M 5.34375 -6 C 5.300781 -6.394531 5.113281 -6.703125 4.78125 -6.921875 C 4.445312 -7.140625 4.035156 -7.25 3.546875 -7.25 C 3.015625 -7.25 2.585938 -7.125 2.265625 -6.875 C 1.941406 -6.625 1.78125 -6.304688 1.78125 -5.921875 C 1.78125 -5.640625 1.867188 -5.410156 2.046875 -5.234375 C 2.222656 -5.054688 2.429688 -4.914062 2.671875 -4.8125 C 2.910156 -4.71875 3.128906 -4.644531 3.328125 -4.59375 L 4.140625 -4.375 C 4.347656 -4.320312 4.578125 -4.242188 4.828125 -4.140625 C 5.085938 -4.046875 5.335938 -3.914062 5.578125 -3.75 C 5.816406 -3.59375 6.007812 -3.382812 6.15625 -3.125 C 6.3125 -2.863281 6.390625 -2.546875 6.390625 -2.171875 C 6.390625 -1.742188 6.273438 -1.351562 6.046875 -1 C 5.828125 -0.65625 5.5 -0.378906 5.0625 -0.171875 C 4.632812 0.0351562 4.113281 0.140625 3.5 0.140625 C 2.644531 0.140625 1.960938 -0.0625 1.453125 -0.46875 C 0.953125 -0.875 0.675781 -1.40625 0.625 -2.0625 L 1.625 -2.0625 C 1.65625 -1.757812 1.757812 -1.507812 1.9375 -1.3125 C 2.113281 -1.113281 2.335938 -0.96875 2.609375 -0.875 C 2.890625 -0.78125 3.1875 -0.734375 3.5 -0.734375 C 3.875 -0.734375 4.207031 -0.789062 4.5 -0.90625 C 4.789062 -1.03125 5.019531 -1.203125 5.1875 -1.421875 C 5.363281 -1.640625 5.453125 -1.894531 5.453125 -2.1875 C 5.453125 -2.457031 5.378906 -2.675781 5.234375 -2.84375 C 5.085938 -3.007812 4.890625 -3.144531 4.640625 -3.25 C 4.398438 -3.351562 4.140625 -3.441406 3.859375 -3.515625 L 2.875 -3.796875 C 2.25 -3.972656 1.753906 -4.226562 1.390625 -4.5625 C 1.023438 -4.894531 0.84375 -5.332031 0.84375 -5.875 C 0.84375 -6.320312 0.960938 -6.710938 1.203125 -7.046875 C 1.453125 -7.378906 1.78125 -7.640625 2.1875 -7.828125 C 2.601562 -8.015625 3.066406 -8.109375 3.578125 -8.109375 C 4.097656 -8.109375 4.554688 -8.015625 4.953125 -7.828125 C 5.359375 -7.648438 5.675781 -7.398438 5.90625 -7.078125 C 6.144531 -6.765625 6.269531 -6.40625 6.28125 -6 Z M 5.34375 -6 "/></g></g></g><g fill="#846d62" fill-opacity="1"><g transform="translate(156.566559, 189.465338)"><g><path d="M 7.71875 -4 C 7.71875 -3.15625 7.566406 -2.425781 7.265625 -1.8125 C 6.960938 -1.195312 6.546875 -0.722656 6.015625 -0.390625 C 5.484375 -0.0546875 4.875 0.109375 4.1875 0.109375 C 3.507812 0.109375 2.90625 -0.0546875 2.375 -0.390625 C 1.84375 -0.722656 1.421875 -1.195312 1.109375 -1.8125 C 0.804688 -2.425781 0.65625 -3.15625 0.65625 -4 C 0.65625 -4.84375 0.804688 -5.570312 1.109375 -6.1875 C 1.421875 -6.800781 1.84375 -7.273438 2.375 -7.609375 C 2.90625 -7.941406 3.507812 -8.109375 4.1875 -8.109375 C 4.875 -8.109375 5.484375 -7.941406 6.015625 -7.609375 C 6.546875 -7.273438 6.960938 -6.800781 7.265625 -6.1875 C 7.566406 -5.570312 7.71875 -4.84375 7.71875 -4 Z M 6.78125 -4 C 6.78125 -4.695312 6.664062 -5.28125 6.4375 -5.75 C 6.207031 -6.226562 5.894531 -6.585938 5.5 -6.828125 C 5.113281 -7.078125 4.675781 -7.203125 4.1875 -7.203125 C 3.707031 -7.203125 3.269531 -7.078125 2.875 -6.828125 C 2.476562 -6.585938 2.164062 -6.226562 1.9375 -5.75 C 1.707031 -5.28125 1.59375 -4.695312 1.59375 -4 C 1.59375 -3.3125 1.707031 -2.726562 1.9375 -2.25 C 2.164062 -1.769531 2.476562 -1.40625 2.875 -1.15625 C 3.269531 -0.914062 3.707031 -0.796875 4.1875 -0.796875 C 4.675781 -0.796875 5.113281 -0.914062 5.5 -1.15625 C 5.894531 -1.40625 6.207031 -1.769531 6.4375 -2.25 C 6.664062 -2.726562 6.78125 -3.3125 6.78125 -4 Z M 6.78125 -4 "/></g></g></g><g fill="#846d62" fill-opacity="1"><g transform="translate(167.179683, 189.465338)"><g><path d="M 7.3125 -8 L 7.3125 0 L 6.375 0 L 2.015625 -6.28125 L 1.9375 -6.28125 L 1.9375 0 L 0.96875 0 L 0.96875 -8 L 1.90625 -8 L 6.28125 -1.703125 L 6.359375 -1.703125 L 6.359375 -8 Z M 7.3125 -8 "/></g></g></g><g fill="#846d62" fill-opacity="1"><g transform="translate(177.699126, 189.465338)"><g><path d="M 1.296875 0 L 0.28125 0 L 3.21875 -8 L 4.21875 -8 L 7.15625 0 L 6.140625 0 L 5.34375 -2.265625 L 2.109375 -2.265625 Z M 2.40625 -3.125 L 5.03125 -3.125 L 3.75 -6.734375 L 3.6875 -6.734375 Z M 2.40625 -3.125 "/></g></g></g><g fill="#846d62" fill-opacity="1"><g transform="translate(187.375414, 189.465338)"><g><path d="M 0.96875 0 L 0.96875 -8 L 1.9375 -8 L 1.9375 -0.859375 L 5.65625 -0.859375 L 5.65625 0 Z M 0.96875 0 "/></g></g></g><g fill="#846d62" fill-opacity="1"><g transform="translate(195.802579, 189.465338)"><g/></g></g><g fill="#846d62" fill-opacity="1"><g transform="translate(201.138158, 189.465338)"><g><path d="M 0.96875 0 L 0.96875 -8 L 5.765625 -8 L 5.765625 -7.140625 L 1.9375 -7.140625 L 1.9375 -4.4375 L 5.40625 -4.4375 L 5.40625 -3.578125 L 1.9375 -3.578125 L 1.9375 0 Z M 0.96875 0 "/></g></g></g><g fill="#846d62" fill-opacity="1"><g transform="translate(209.830758, 189.465338)"><g><path d="M 1.9375 -8 L 1.9375 0 L 0.96875 0 L 0.96875 -8 Z M 1.9375 -8 "/></g></g></g><g fill="#846d62" fill-opacity="1"><g transform="translate(214.978973, 189.465338)"><g><path d="M 7.3125 -8 L 7.3125 0 L 6.375 0 L 2.015625 -6.28125 L 1.9375 -6.28125 L 1.9375 0 L 0.96875 0 L 0.96875 -8 L 1.90625 -8 L 6.28125 -1.703125 L 6.359375 -1.703125 L 6.359375 -8 Z M 7.3125 -8 "/></g></g></g><g fill="#846d62" fill-opacity="1"><g transform="translate(225.498422, 189.465338)"><g><path d="M 1.296875 0 L 0.28125 0 L 3.21875 -8 L 4.21875 -8 L 7.15625 0 L 6.140625 0 L 5.34375 -2.265625 L 2.109375 -2.265625 Z M 2.40625 -3.125 L 5.03125 -3.125 L 3.75 -6.734375 L 3.6875 -6.734375 Z M 2.40625 -3.125 "/></g></g></g><g fill="#846d62" fill-opacity="1"><g transform="translate(235.17471, 189.465338)"><g><path d="M 7.3125 -8 L 7.3125 0 L 6.375 0 L 2.015625 -6.28125 L 1.9375 -6.28125 L 1.9375 0 L 0.96875 0 L 0.96875 -8 L 1.90625 -8 L 6.28125 -1.703125 L 6.359375 -1.703125 L 6.359375 -8 Z M 7.3125 -8 "/></g></g></g><g fill="#846d62" fill-opacity="1"><g transform="translate(245.694153, 189.465338)"><g><path d="M 7.40625 -5.5 L 6.4375 -5.5 C 6.363281 -5.875 6.210938 -6.1875 5.984375 -6.4375 C 5.765625 -6.6875 5.5 -6.875 5.1875 -7 C 4.875 -7.132812 4.539062 -7.203125 4.1875 -7.203125 C 3.707031 -7.203125 3.269531 -7.078125 2.875 -6.828125 C 2.476562 -6.585938 2.164062 -6.226562 1.9375 -5.75 C 1.707031 -5.28125 1.59375 -4.695312 1.59375 -4 C 1.59375 -3.3125 1.707031 -2.726562 1.9375 -2.25 C 2.164062 -1.769531 2.476562 -1.40625 2.875 -1.15625 C 3.269531 -0.914062 3.707031 -0.796875 4.1875 -0.796875 C 4.539062 -0.796875 4.875 -0.859375 5.1875 -0.984375 C 5.5 -1.117188 5.765625 -1.3125 5.984375 -1.5625 C 6.210938 -1.820312 6.363281 -2.132812 6.4375 -2.5 L 7.40625 -2.5 C 7.3125 -1.957031 7.109375 -1.488281 6.796875 -1.09375 C 6.492188 -0.707031 6.117188 -0.410156 5.671875 -0.203125 C 5.222656 0.00390625 4.726562 0.109375 4.1875 0.109375 C 3.507812 0.109375 2.90625 -0.0546875 2.375 -0.390625 C 1.84375 -0.722656 1.421875 -1.195312 1.109375 -1.8125 C 0.804688 -2.425781 0.65625 -3.15625 0.65625 -4 C 0.65625 -4.84375 0.804688 -5.570312 1.109375 -6.1875 C 1.421875 -6.800781 1.84375 -7.273438 2.375 -7.609375 C 2.90625 -7.941406 3.507812 -8.109375 4.1875 -8.109375 C 4.726562 -8.109375 5.222656 -8.003906 5.671875 -7.796875 C 6.117188 -7.585938 6.492188 -7.289062 6.796875 -6.90625 C 7.109375 -6.519531 7.3125 -6.050781 7.40625 -5.5 Z M 7.40625 -5.5 "/></g></g></g><g fill="#846d62" fill-opacity="1"><g transform="translate(255.93254, 189.465338)"><g><path d="M 0.96875 0 L 0.96875 -8 L 5.796875 -8 L 5.796875 -7.140625 L 1.9375 -7.140625 L 1.9375 -4.4375 L 5.546875 -4.4375 L 5.546875 -3.578125 L 1.9375 -3.578125 L 1.9375 -0.859375 L 5.859375 -0.859375 L 5.859375 0 Z M 0.96875 0 "/></g></g></g></svg>